<mxfile host="app.diagrams.net" modified="2023-05-15T07:26:39.859Z" agent="Mozilla/5.0 (Windows NT 10.0; Win64; x64) AppleWebKit/537.36 (KHTML, like Gecko) Chrome/113.0.0.0 Safari/537.36 Edg/113.0.1774.35" version="21.1.6" etag="khZLG7W512CJpY0O9WqC" type="github">
  <diagram name="Page-1" id="7mSwu3CVN_gkVVnquIPh">
    <mxGraphModel>
      <root>
        <mxCell id="0" />
        <mxCell id="1" parent="0" />
      </root>
    </mxGraphModel>
  </diagram>
</mxfile>
